<mxfile host="Electron" modified="2023-12-23T20:49:03.995Z" agent="Mozilla/5.0 (Windows NT 10.0; Win64; x64) AppleWebKit/537.36 (KHTML, like Gecko) draw.io/22.1.11 Chrome/114.0.5735.289 Electron/25.9.8 Safari/537.36" etag="hN1sPv_hiZjl8FFzB1PZ" version="22.1.11" type="device">
  <diagram name="Page-1" id="l2Xjn0XXK6vAWMJiunP9">
    <mxGraphModel dx="861" dy="835" grid="0" gridSize="10" guides="1" tooltips="1" connect="1" arrows="1" fold="1" page="1" pageScale="1" pageWidth="827" pageHeight="1169" math="1" shadow="0">
      <root>
        <mxCell id="0" />
        <mxCell id="1" parent="0" />
        <mxCell id="o7nr4-4mXaXAjhyeiuYX-2" value="" style="verticalLabelPosition=bottom;verticalAlign=top;html=1;shape=mxgraph.basic.rect;fillColor2=none;strokeWidth=1;size=20;indent=5;rotation=10;" vertex="1" parent="1">
          <mxGeometry x="466.69" y="932.89" width="41" height="26.5" as="geometry" />
        </mxCell>
        <mxCell id="pOQrpcllDhXAai34JmFp-5" value="" style="shape=singleArrow;whiteSpace=wrap;html=1;fillColor=#008a00;fontColor=#ffffff;strokeColor=#005700;rotation=-30;" parent="1" vertex="1">
          <mxGeometry x="492" y="567.98" width="160" height="60" as="geometry" />
        </mxCell>
        <mxCell id="pOQrpcllDhXAai34JmFp-4" value="" style="shape=singleArrow;direction=east;whiteSpace=wrap;html=1;fillColor=#e51400;fontColor=#ffffff;strokeColor=#B20000;rotation=-117;" parent="1" vertex="1">
          <mxGeometry x="410" y="552.5" width="140" height="60" as="geometry" />
        </mxCell>
        <mxCell id="pOQrpcllDhXAai34JmFp-3" value="" style="shape=singleArrow;direction=north;whiteSpace=wrap;html=1;fillColor=#e51400;fontColor=#ffffff;strokeColor=#B20000;rotation=0;flipV=1;" parent="1" vertex="1">
          <mxGeometry x="203.5" y="840" width="60" height="140" as="geometry" />
        </mxCell>
        <mxCell id="YtdrDYxE7PTuoMvU_s2k-17" value="" style="shape=singleArrow;whiteSpace=wrap;html=1;fillColor=#0050ef;fontColor=#ffffff;strokeColor=#001DBC;rotation=0;" parent="1" vertex="1">
          <mxGeometry x="231.71" y="790.25" width="160" height="60" as="geometry" />
        </mxCell>
        <mxCell id="pOQrpcllDhXAai34JmFp-2" value="" style="ellipse;whiteSpace=wrap;html=1;aspect=fixed;" parent="1" vertex="1">
          <mxGeometry x="216" y="806.02" width="35" height="35" as="geometry" />
        </mxCell>
        <mxCell id="pipYFPkpw5M2hkl7hwNl-35" value="" style="endArrow=none;html=1;rounded=0;dashed=1;dashPattern=1 1;strokeWidth=5;" parent="1" edge="1">
          <mxGeometry width="50" height="50" relative="1" as="geometry">
            <mxPoint x="388.00000000000017" y="406" as="sourcePoint" />
            <mxPoint x="278.00000000000006" y="406" as="targetPoint" />
          </mxGeometry>
        </mxCell>
        <mxCell id="YtdrDYxE7PTuoMvU_s2k-47" value="" style="verticalLabelPosition=bottom;verticalAlign=top;html=1;shape=mxgraph.basic.x;container=0;fillColor=#e51400;fontColor=#ffffff;strokeColor=#B20000;" parent="1" vertex="1">
          <mxGeometry x="142" y="138" width="20" height="20" as="geometry" />
        </mxCell>
        <mxCell id="YtdrDYxE7PTuoMvU_s2k-28" value="" style="endArrow=none;html=1;rounded=0;strokeWidth=6;dashed=1;dashPattern=1 2;" parent="1" edge="1">
          <mxGeometry width="50" height="50" relative="1" as="geometry">
            <mxPoint x="387.5" y="293" as="sourcePoint" />
            <mxPoint x="497.5" y="293" as="targetPoint" />
          </mxGeometry>
        </mxCell>
        <mxCell id="YtdrDYxE7PTuoMvU_s2k-25" value="\(\omega\)" style="text;strokeColor=none;align=center;fillColor=none;html=1;verticalAlign=middle;whiteSpace=wrap;rounded=0;fontSize=30;" parent="1" vertex="1">
          <mxGeometry x="170" y="5" width="60" height="80" as="geometry" />
        </mxCell>
        <mxCell id="YtdrDYxE7PTuoMvU_s2k-37" value="&lt;font style=&quot;font-size: 30px;&quot;&gt;$$e_1$$&lt;/font&gt;" style="text;strokeColor=none;align=center;fillColor=none;html=1;verticalAlign=middle;whiteSpace=wrap;rounded=0;" parent="1" vertex="1">
          <mxGeometry x="230" y="80" width="130" height="90" as="geometry" />
        </mxCell>
        <mxCell id="YtdrDYxE7PTuoMvU_s2k-40" value="&lt;font style=&quot;font-size: 30px;&quot;&gt;$$e_2$$&lt;/font&gt;" style="text;strokeColor=none;align=center;fillColor=none;html=1;verticalAlign=middle;whiteSpace=wrap;rounded=0;" parent="1" vertex="1">
          <mxGeometry x="333" y="80" width="100" height="90" as="geometry" />
        </mxCell>
        <mxCell id="YtdrDYxE7PTuoMvU_s2k-32" value="&lt;font style=&quot;font-size: 30px;&quot;&gt;\(\theta\)&lt;/font&gt;" style="text;strokeColor=none;align=center;fillColor=none;html=1;verticalAlign=middle;whiteSpace=wrap;rounded=0;fontSize=30;" parent="1" vertex="1">
          <mxGeometry x="410" y="20" width="50" height="50" as="geometry" />
        </mxCell>
        <mxCell id="YtdrDYxE7PTuoMvU_s2k-38" value="&lt;font style=&quot;font-size: 30px;&quot;&gt;$$e_r$$&lt;/font&gt;" style="text;strokeColor=none;align=center;fillColor=none;html=1;verticalAlign=middle;whiteSpace=wrap;rounded=0;" parent="1" vertex="1">
          <mxGeometry x="550" y="33" width="130" height="90" as="geometry" />
        </mxCell>
        <mxCell id="YtdrDYxE7PTuoMvU_s2k-39" value="&lt;font style=&quot;font-size: 30px;&quot;&gt;$$e_\theta$$&lt;/font&gt;" style="text;strokeColor=none;align=center;fillColor=none;html=1;verticalAlign=middle;whiteSpace=wrap;rounded=0;" parent="1" vertex="1">
          <mxGeometry x="554" y="173" width="130" height="90" as="geometry" />
        </mxCell>
        <mxCell id="YtdrDYxE7PTuoMvU_s2k-41" value="&lt;font style=&quot;font-size: 30px;&quot;&gt;$$e_1$$&lt;/font&gt;" style="text;strokeColor=none;align=center;fillColor=none;html=1;verticalAlign=middle;whiteSpace=wrap;rounded=0;" parent="1" vertex="1">
          <mxGeometry x="554" y="103" width="130" height="90" as="geometry" />
        </mxCell>
        <mxCell id="YtdrDYxE7PTuoMvU_s2k-44" value="" style="ellipse;whiteSpace=wrap;html=1;aspect=fixed;fillColor=#0050ef;fontColor=#ffffff;strokeColor=#001DBC;" parent="1" vertex="1">
          <mxGeometry x="192.5" y="250" width="15" height="15" as="geometry" />
        </mxCell>
        <mxCell id="pipYFPkpw5M2hkl7hwNl-17" value="&lt;font style=&quot;font-size: 30px;&quot;&gt;$$e_3$$&lt;/font&gt;" style="text;strokeColor=none;align=center;fillColor=none;html=1;verticalAlign=middle;whiteSpace=wrap;rounded=0;" parent="1" vertex="1">
          <mxGeometry x="403" y="80" width="130" height="90" as="geometry" />
        </mxCell>
        <mxCell id="pipYFPkpw5M2hkl7hwNl-22" value="" style="endArrow=none;html=1;rounded=0;dashed=1;dashPattern=1 1;strokeWidth=5;" parent="1" edge="1">
          <mxGeometry width="50" height="50" relative="1" as="geometry">
            <mxPoint x="45.49999999999999" y="1132.5" as="sourcePoint" />
            <mxPoint x="45.49999999999999" y="1002.4999999999998" as="targetPoint" />
          </mxGeometry>
        </mxCell>
        <mxCell id="pipYFPkpw5M2hkl7hwNl-26" value="" style="ellipse;whiteSpace=wrap;html=1;aspect=fixed;fillColor=#008a00;fontColor=#ffffff;strokeColor=#005700;" parent="1" vertex="1">
          <mxGeometry x="120" y="248" width="15" height="15" as="geometry" />
        </mxCell>
        <mxCell id="fKfB6fLQHJB_qYizyDDE-4" value="" style="verticalLabelPosition=bottom;verticalAlign=top;html=1;shape=mxgraph.basic.x;container=0;fillColor=#008a00;fontColor=#ffffff;strokeColor=#005700;" parent="1" vertex="1">
          <mxGeometry x="50" y="138" width="20" height="20" as="geometry" />
        </mxCell>
        <mxCell id="YtdrDYxE7PTuoMvU_s2k-43" value="" style="ellipse;whiteSpace=wrap;html=1;aspect=fixed;" parent="1" vertex="1">
          <mxGeometry x="283.21" y="248" width="35" height="35" as="geometry" />
        </mxCell>
        <mxCell id="fKfB6fLQHJB_qYizyDDE-10" value="&lt;font style=&quot;font-size: 30px;&quot;&gt;$$E_1$$&lt;/font&gt;" style="text;strokeColor=none;align=center;fillColor=none;html=1;verticalAlign=middle;whiteSpace=wrap;rounded=0;" parent="1" vertex="1">
          <mxGeometry x="231.71" y="138" width="130" height="90" as="geometry" />
        </mxCell>
        <mxCell id="fKfB6fLQHJB_qYizyDDE-11" value="&lt;font style=&quot;font-size: 30px;&quot;&gt;$$E_2$$&lt;/font&gt;" style="text;strokeColor=none;align=center;fillColor=none;html=1;verticalAlign=middle;whiteSpace=wrap;rounded=0;" parent="1" vertex="1">
          <mxGeometry x="320" y="140" width="130" height="90" as="geometry" />
        </mxCell>
        <mxCell id="fKfB6fLQHJB_qYizyDDE-12" value="&lt;font style=&quot;font-size: 30px;&quot;&gt;$$E_3$$&lt;/font&gt;" style="text;strokeColor=none;align=center;fillColor=none;html=1;verticalAlign=middle;whiteSpace=wrap;rounded=0;" parent="1" vertex="1">
          <mxGeometry x="412.71000000000004" y="140" width="130" height="90" as="geometry" />
        </mxCell>
        <mxCell id="fKfB6fLQHJB_qYizyDDE-19" value="" style="shape=singleArrow;direction=north;whiteSpace=wrap;html=1;fillColor=#008a00;fontColor=#ffffff;strokeColor=#005700;rotation=50;" parent="1" vertex="1">
          <mxGeometry x="77.00000000000011" y="572.5" width="60" height="140" as="geometry" />
        </mxCell>
        <mxCell id="pipYFPkpw5M2hkl7hwNl-18" value="&lt;font style=&quot;font-size: 30px;&quot;&gt;$$f_\theta$$&lt;/font&gt;" style="text;strokeColor=none;align=center;fillColor=none;html=1;verticalAlign=middle;whiteSpace=wrap;rounded=0;" parent="1" vertex="1">
          <mxGeometry x="601" y="271" width="62.32" height="50" as="geometry" />
        </mxCell>
        <mxCell id="YtdrDYxE7PTuoMvU_s2k-21" value="" style="shape=singleArrow;whiteSpace=wrap;html=1;fillColor=#0050ef;fontColor=#ffffff;strokeColor=#001DBC;rotation=45;" parent="1" vertex="1">
          <mxGeometry x="33.24999999999999" y="700" width="139.5" height="60" as="geometry" />
        </mxCell>
        <mxCell id="pipYFPkpw5M2hkl7hwNl-36" value="&lt;font style=&quot;font-size: 30px;&quot;&gt;\(\theta\)&lt;/font&gt;" style="text;strokeColor=none;align=center;fillColor=none;html=1;verticalAlign=middle;whiteSpace=wrap;rounded=0;fontSize=30;" parent="1" vertex="1">
          <mxGeometry x="430.99999999999994" y="337" width="50" height="50" as="geometry" />
        </mxCell>
        <mxCell id="pipYFPkpw5M2hkl7hwNl-20" value="&lt;font style=&quot;font-size: 30px;&quot;&gt;$$f_z$$&lt;/font&gt;" style="text;strokeColor=none;align=center;fillColor=none;html=1;verticalAlign=middle;whiteSpace=wrap;rounded=0;" parent="1" vertex="1">
          <mxGeometry x="612.4995037470501" y="412" width="69" height="90" as="geometry" />
        </mxCell>
        <mxCell id="pipYFPkpw5M2hkl7hwNl-19" value="&lt;font style=&quot;font-size: 30px;&quot;&gt;$$f_r$$&lt;/font&gt;" style="text;strokeColor=none;align=center;fillColor=none;html=1;verticalAlign=middle;whiteSpace=wrap;rounded=0;" parent="1" vertex="1">
          <mxGeometry x="613.32" y="337" width="50" height="50" as="geometry" />
        </mxCell>
        <mxCell id="fKfB6fLQHJB_qYizyDDE-9" value="" style="verticalLabelPosition=bottom;verticalAlign=top;html=1;shape=mxgraph.basic.x;container=0;fillColor=#0050ef;fontColor=#ffffff;strokeColor=#001DBC;" parent="1" vertex="1">
          <mxGeometry x="207.5" y="138" width="20" height="20" as="geometry" />
        </mxCell>
        <mxCell id="fKfB6fLQHJB_qYizyDDE-14" value="&lt;font style=&quot;font-size: 30px;&quot;&gt;$$E_2$$&lt;/font&gt;" style="text;strokeColor=none;align=center;fillColor=none;html=1;verticalAlign=middle;whiteSpace=wrap;rounded=0;" parent="1" vertex="1">
          <mxGeometry x="351" y="769.02" width="130" height="90" as="geometry" />
        </mxCell>
        <mxCell id="fKfB6fLQHJB_qYizyDDE-13" value="&lt;font style=&quot;font-size: 30px;&quot;&gt;$$E_1$$&lt;/font&gt;" style="text;strokeColor=none;align=center;fillColor=none;html=1;verticalAlign=middle;whiteSpace=wrap;rounded=0;" parent="1" vertex="1">
          <mxGeometry x="207.5" y="942.5" width="130" height="90" as="geometry" />
        </mxCell>
        <mxCell id="YtdrDYxE7PTuoMvU_s2k-22" value="" style="shape=singleArrow;direction=north;whiteSpace=wrap;html=1;fillColor=#008a00;fontColor=#ffffff;strokeColor=#005700;rotation=90;flipV=1;" parent="1" vertex="1">
          <mxGeometry x="66.00000000000011" y="374" width="60" height="140" as="geometry" />
        </mxCell>
        <mxCell id="fKfB6fLQHJB_qYizyDDE-15" value="&lt;font style=&quot;font-size: 30px;&quot;&gt;$$E_3$$&lt;/font&gt;" style="text;strokeColor=none;align=center;fillColor=none;html=1;verticalAlign=middle;whiteSpace=wrap;rounded=0;" parent="1" vertex="1">
          <mxGeometry x="126.00000000000006" y="778.52" width="130" height="90" as="geometry" />
        </mxCell>
        <mxCell id="fKfB6fLQHJB_qYizyDDE-5" value="" style="ellipse;whiteSpace=wrap;html=1;aspect=fixed;" parent="1" vertex="1">
          <mxGeometry x="31" y="283" width="35" height="35" as="geometry" />
        </mxCell>
        <mxCell id="kzr9RMCHi-bm-MOGHH_b-2" value="" style="ellipse;whiteSpace=wrap;html=1;aspect=fixed;fillColor=#e51400;fontColor=#ffffff;strokeColor=#B20000;" parent="1" vertex="1">
          <mxGeometry x="41" y="293" width="15" height="15" as="geometry" />
        </mxCell>
        <mxCell id="pOQrpcllDhXAai34JmFp-1" value="" style="ellipse;whiteSpace=wrap;html=1;aspect=fixed;fillColor=#008a00;fontColor=#ffffff;strokeColor=#005700;" parent="1" vertex="1">
          <mxGeometry x="93" y="276" width="15" height="15" as="geometry" />
        </mxCell>
        <mxCell id="pipYFPkpw5M2hkl7hwNl-30" value="" style="ellipse;whiteSpace=wrap;html=1;aspect=fixed;" parent="1" vertex="1">
          <mxGeometry x="28.50000000000005" y="997.5" width="35" height="35" as="geometry" />
        </mxCell>
        <mxCell id="kzr9RMCHi-bm-MOGHH_b-5" value="" style="ellipse;whiteSpace=wrap;html=1;aspect=fixed;fillColor=#008a00;fontColor=#ffffff;strokeColor=#005700;" parent="1" vertex="1">
          <mxGeometry x="70" y="248" width="15" height="15" as="geometry" />
        </mxCell>
        <mxCell id="pOQrpcllDhXAai34JmFp-16" style="edgeStyle=orthogonalEdgeStyle;rounded=0;orthogonalLoop=1;jettySize=auto;html=1;exitX=0;exitY=0;exitDx=0;exitDy=0;entryX=1;entryY=0;entryDx=0;entryDy=0;" parent="1" source="kzr9RMCHi-bm-MOGHH_b-5" target="kzr9RMCHi-bm-MOGHH_b-5" edge="1">
          <mxGeometry relative="1" as="geometry" />
        </mxCell>
        <mxCell id="pOQrpcllDhXAai34JmFp-18" value="" style="verticalLabelPosition=bottom;verticalAlign=top;html=1;shape=mxgraph.basic.x;container=0;fillColor=#e51400;fontColor=#ffffff;strokeColor=#B20000;" parent="1" vertex="1">
          <mxGeometry x="93" y="357" width="20" height="20" as="geometry" />
        </mxCell>
        <mxCell id="pOQrpcllDhXAai34JmFp-20" value="&lt;font style=&quot;font-size: 30px;&quot;&gt;\(\theta\)&lt;/font&gt;" style="text;strokeColor=none;align=center;fillColor=none;html=1;verticalAlign=middle;whiteSpace=wrap;rounded=0;fontSize=30;" parent="1" vertex="1">
          <mxGeometry x="39.71000000000003" y="1049.5" width="50" height="50" as="geometry" />
        </mxCell>
        <mxCell id="pOQrpcllDhXAai34JmFp-21" value="&lt;font style=&quot;font-size: 30px;&quot;&gt;$$u_r$$&lt;/font&gt;" style="text;strokeColor=none;align=center;fillColor=none;html=1;verticalAlign=middle;whiteSpace=wrap;rounded=0;" parent="1" vertex="1">
          <mxGeometry x="133.99999999999997" y="1095" width="45" height="52.5" as="geometry" />
        </mxCell>
        <mxCell id="pOQrpcllDhXAai34JmFp-22" value="&lt;font style=&quot;font-size: 30px;&quot;&gt;$$u_1$$&lt;/font&gt;" style="text;strokeColor=none;align=center;fillColor=none;html=1;verticalAlign=middle;whiteSpace=wrap;rounded=0;" parent="1" vertex="1">
          <mxGeometry x="21.709999999999994" y="794" width="45" height="52.5" as="geometry" />
        </mxCell>
        <mxCell id="pOQrpcllDhXAai34JmFp-23" value="&lt;font style=&quot;font-size: 30px;&quot;&gt;$$u_\theta$$&lt;/font&gt;" style="text;strokeColor=none;align=center;fillColor=none;html=1;verticalAlign=middle;whiteSpace=wrap;rounded=0;" parent="1" vertex="1">
          <mxGeometry x="147.99999999999997" y="890" width="45" height="52.5" as="geometry" />
        </mxCell>
        <mxCell id="pipYFPkpw5M2hkl7hwNl-16" value="&lt;font style=&quot;font-size: 30px;&quot;&gt;$$e_2$$&lt;/font&gt;" style="text;strokeColor=none;align=center;fillColor=none;html=1;verticalAlign=middle;whiteSpace=wrap;rounded=0;" parent="1" vertex="1">
          <mxGeometry x="427.57" y="201" width="45" height="52.5" as="geometry" />
        </mxCell>
        <mxCell id="pipYFPkpw5M2hkl7hwNl-15" value="&lt;font style=&quot;font-size: 30px;&quot;&gt;$$e_1$$&lt;/font&gt;" style="text;strokeColor=none;align=center;fillColor=none;html=1;verticalAlign=middle;whiteSpace=wrap;rounded=0;" parent="1" vertex="1">
          <mxGeometry x="414" y="474" width="55" height="38" as="geometry" />
        </mxCell>
        <mxCell id="fKfB6fLQHJB_qYizyDDE-26" value="\(\omega\)" style="text;strokeColor=none;align=center;fillColor=none;html=1;verticalAlign=middle;whiteSpace=wrap;rounded=0;fontSize=30;" parent="1" vertex="1">
          <mxGeometry x="469" y="525" width="40" height="40" as="geometry" />
        </mxCell>
        <mxCell id="N2Tis4zPC5xt_AqHBenX-2" value="" style="verticalLabelPosition=bottom;verticalAlign=top;html=1;shape=mxgraph.basic.x;container=0;fillColor=#008a00;fontColor=#ffffff;strokeColor=#005700;" parent="1" vertex="1">
          <mxGeometry x="262.5" y="552.5" width="20" height="20" as="geometry" />
        </mxCell>
        <mxCell id="YtdrDYxE7PTuoMvU_s2k-36" value="&lt;font style=&quot;font-size: 30px;&quot;&gt;$$e_3$$&lt;/font&gt;" style="text;strokeColor=none;align=center;fillColor=none;html=1;verticalAlign=middle;whiteSpace=wrap;rounded=0;" parent="1" vertex="1">
          <mxGeometry x="646.5" y="524" width="40.5" height="41" as="geometry" />
        </mxCell>
        <mxCell id="pOQrpcllDhXAai34JmFp-6" value="" style="ellipse;whiteSpace=wrap;html=1;aspect=fixed;rotation=-30;" parent="1" vertex="1">
          <mxGeometry x="487.57" y="616.48" width="35" height="35" as="geometry" />
        </mxCell>
        <mxCell id="pOQrpcllDhXAai34JmFp-12" value="" style="endArrow=none;html=1;rounded=0;dashed=1;dashPattern=1 1;strokeWidth=5;" parent="1" edge="1">
          <mxGeometry width="50" height="50" relative="1" as="geometry">
            <mxPoint x="507" y="514" as="sourcePoint" />
            <mxPoint x="507.3600000000001" y="623" as="targetPoint" />
          </mxGeometry>
        </mxCell>
        <mxCell id="N2Tis4zPC5xt_AqHBenX-5" value="" style="ellipse;whiteSpace=wrap;html=1;aspect=fixed;fillColor=#0050ef;fontColor=#ffffff;strokeColor=#001DBC;" parent="1" vertex="1">
          <mxGeometry x="497.57" y="626.48" width="15" height="15" as="geometry" />
        </mxCell>
        <mxCell id="N2Tis4zPC5xt_AqHBenX-13" value="" style="ellipse;whiteSpace=wrap;html=1;aspect=fixed;fillColor=#e51400;fontColor=#ffffff;strokeColor=#B20000;" parent="1" vertex="1">
          <mxGeometry x="37.99999999999999" y="1007.5" width="15" height="15" as="geometry" />
        </mxCell>
        <mxCell id="N2Tis4zPC5xt_AqHBenX-14" value="&lt;font style=&quot;font-size: 30px;&quot;&gt;$$e_2$$&lt;/font&gt;" style="text;strokeColor=none;align=center;fillColor=none;html=1;verticalAlign=middle;whiteSpace=wrap;rounded=0;" parent="1" vertex="1">
          <mxGeometry x="427.57" y="607" width="100" height="90" as="geometry" />
        </mxCell>
        <mxCell id="o7nr4-4mXaXAjhyeiuYX-1" value="" style="verticalLabelPosition=bottom;verticalAlign=top;html=1;shape=mxgraph.basic.orthogonal_triangle;direction=west;flipV=1;flipH=1;" vertex="1" parent="1">
          <mxGeometry x="380" y="930" width="380" height="72.5" as="geometry" />
        </mxCell>
        <mxCell id="o7nr4-4mXaXAjhyeiuYX-4" value="" style="ellipse;whiteSpace=wrap;html=1;aspect=fixed;fillColor=#008a00;fontColor=#ffffff;strokeColor=#005700;" vertex="1" parent="1">
          <mxGeometry x="226" y="816.02" width="15" height="15" as="geometry" />
        </mxCell>
      </root>
    </mxGraphModel>
  </diagram>
</mxfile>
